<svg width="744" height="434" viewBox="0 0 744 434" fill="none" xmlns="http://www.w3.org/2000/svg">
<rect width="744" height="434" fill="url(#paint0_linear_24_42)"/>
<g opacity="0.05" filter="url(#filter0_d_24_42)">
<path fill-rule="evenodd" clip-rule="evenodd" d="M201.125 261.567C228.201 247.933 245.822 255.641 253.982 284.692C242.981 307.794 225.36 324.312 201.125 334.246C137.895 371.708 81.1851 363.997 30.9917 311.121C1.94184 256.995 3.04292 203.035 34.2953 149.246C56.3975 108.417 86.6802 74.8302 125.143 48.4873C135.629 42.7893 146.64 38.3847 158.179 35.273C183.388 35.0933 208.165 32.3401 232.509 27.0141C245.076 26.6825 253.886 32.1882 258.938 43.532C266.599 68.3467 265.499 92.5727 255.634 116.21C244.878 122.581 233.315 124.233 220.947 121.166C212.136 111.255 203.329 101.344 194.518 91.4336C178.727 88.0316 164.413 91.3352 151.572 101.344C98.6745 140.523 71.6953 192.83 70.6345 258.264C86.2531 295.515 113.232 307.077 151.572 292.951C170.362 285.653 186.88 275.191 201.125 261.567Z" fill="white"/>
</g>
<path fill-rule="evenodd" clip-rule="evenodd" d="M253.982 284.692C242.981 307.794 225.36 324.312 201.125 334.245C200.729 367.504 200.902 400.755 201.645 434H259.486C260.299 397.422 261.768 360.868 263.893 324.335C280.546 319.079 297.616 315.775 315.098 314.424C340.922 317.754 366.802 318.306 392.732 316.076C399.891 313.324 404.846 308.369 407.598 301.21C414.496 278.372 406.237 264.606 382.821 259.915C347.582 257.712 312.346 257.712 277.107 259.915C271.818 260.817 266.863 262.469 262.241 264.871C260.589 240.669 260.041 216.444 260.589 192.192C308.967 186.001 356.868 188.202 404.294 198.799C410.792 198.661 416.851 197.009 422.464 193.844C437.994 181.353 439.094 168.139 425.768 154.201C390.73 137.988 353.839 129.729 315.098 129.425C282.631 132.313 250.147 135.066 217.643 137.683C210.484 140.436 205.529 145.392 202.777 152.549C201.125 188.872 200.574 225.211 201.125 261.567C228.201 247.933 245.822 255.641 253.982 284.692Z" fill="#30376D"/>
<defs>
<filter id="filter0_d_24_42" x="6" y="27" width="261.962" height="338.547" filterUnits="userSpaceOnUse" color-interpolation-filters="sRGB">
<feFlood flood-opacity="0" result="BackgroundImageFix"/>
<feColorMatrix in="SourceAlpha" type="matrix" values="0 0 0 0 0 0 0 0 0 0 0 0 0 0 0 0 0 0 127 0" result="hardAlpha"/>
<feOffset dy="4"/>
<feGaussianBlur stdDeviation="2"/>
<feComposite in2="hardAlpha" operator="out"/>
<feColorMatrix type="matrix" values="0 0 0 0 0 0 0 0 0 0 0 0 0 0 0 0 0 0 0.25 0"/>
<feBlend mode="normal" in2="BackgroundImageFix" result="effect1_dropShadow_24_42"/>
<feBlend mode="normal" in="SourceGraphic" in2="effect1_dropShadow_24_42" result="shape"/>
</filter>
<linearGradient id="paint0_linear_24_42" x1="30.5" y1="27" x2="599" y2="394.5" gradientUnits="userSpaceOnUse">
<stop offset="0.165603" stop-color="#272F69"/>
<stop offset="1" stop-color="#101644"/>
</linearGradient>
</defs>
</svg>
